#!OML:ASF X:\für Bonn\!DataBase\2005_08_11_Bastian_Final\c3d\Bastian.ASF
:FULLY-SPECIFIED
:DEGREES
421
root -2.35474 1.20811 21.3256 -1000.93 -1.89617 -182.003
lowerback 25.8306 -7.36355 0.0424241
upperback 25.951 -1.93978 -2.90279
thorax 14.9394 3.74517 -1.83156
lowerneck 11.5324 -0.475327 -7.41595
upperneck 10.9003 -0.41061 5.85592
head 1.58532 0.141523 3.24979
rclavicle -3.97569e-016 -1.43125e-014
rhumerus -42.578 27.1393 -73.0925
rradius 61.8314
rwrist 10.6478
rhand -25.089 2.16043
rfingers 7.12502
rthumb 1.4256 -27.8146
lclavicle -3.97569e-016 -1.43125e-014
lhumerus -49.0758 -9.74122 73.823
lradius 56.0919
lwrist -5.50555
lhand -31.4108 -25.0392
lfingers 7.12502
lthumb -4.67982 4.88908
rfemur -0.268545 5.61492 25.4788
rtibia 33.2684
rfoot -7.63371 -21.0956
rtoes -5.72374
lfemur 1.0382 -0.343937 -16.6906
ltibia 27.6814
lfoot 12.2491 1.10705
ltoes -10.4067
422
root -2.35316 1.20292 21.3286 -1001.26 -1.8786 -182.078
lowerback 25.5637 -7.27128 0.0948333
upperback 25.8483 -1.93971 -2.82091
thorax 14.9319 3.68243 -1.78938
lowerneck 11.4634 -0.585847 -7.32625
upperneck 10.9482 -0.537592 5.65846
head 1.62053 0.0804122 3.16706
rclavicle -7.95139e-015 2.38542e-014
rhumerus -42.5393 28.2488 -73.2314
rradius 61.55
rwrist 9.78596
rhand -24.8516 2.09804
rfingers 7.12502
rthumb 1.65492 -27.8753
lclavicle -7.95139e-015 2.38542e-014
lhumerus -48.8342 -9.76035 73.8175
lradius 55.83
lwrist -5.46451
lhand -31.1753 -24.3119
lfingers 7.12502
lthumb -4.45243 5.62128
rfemur 0.0974996 5.61272 25.5162
rtibia 33.2638
rfoot -7.74063 -21.1502
rtoes -5.56112
lfemur 1.40138 -0.416294 -16.6814
ltibia 27.6571
lfoot 12.3477 0.875932
ltoes -9.91941
423
root -2.35029 1.19753 21.3335 -1001.6 -1.88245 -182.16
lowerback 25.3206 -7.15822 0.126719
upperback 25.7284 -1.91661 -2.74053
thorax 14.8947 3.62553 -1.74216
lowerneck 11.339 -0.706555 -7.24765
upperneck 11.0596 -0.674429 5.48972
head 1.68691 0.016419 3.0976
rclavicle 1.35174e-014 -2.22639e-014
rhumerus -42.5387 29.3055 -73.3687
rradius 61.2306
rwrist 8.96351
rhand -24.5563 2.13586
rfingers 7.12502
rthumb 1.94008 -27.8351
lclavicle 1.35174e-014 -2.22639e-014
lhumerus -48.6349 -9.77734 73.7866
lradius 55.5712
lwrist -5.46358
lhand -30.9172 -23.4923
lfingers 7.12502
lthumb -4.20317 6.44597
rfemur 0.449675 5.55606 25.5224
rtibia 33.2592
rfoot -7.73531 -21.1453
rtoes -5.66895
lfemur 1.75566 -0.464163 -16.6917
ltibia 27.6352
lfoot 12.4578 0.606568
ltoes -9.70963
424
root -2.34838 1.19323 21.338 -1001.89 -1.89497 -182.251
lowerback 25.0465 -7.03825 0.171426
upperback 25.5796 -1.89795 -2.66602
thorax 14.8344 3.55852 -1.7119
lowerneck 11.224 -0.829324 -7.12933
upperneck 11.1704 -0.806893 5.25769
head 1.74983 -0.0445563 2.99843
rclavicle 7.95139e-015 2.46493e-014
rhumerus -42.5831 30.4309 -73.5762
rradius 60.8912
rwrist 8.0949
rhand -24.2996 2.23842
rfingers 7.12502
rthumb 2.18799 -27.7301
lclavicle 7.95139e-015 2.46493e-014
lhumerus -48.5075 -9.83889 73.7534
lradius 55.3699
lwrist -5.39006
lhand -30.6849 -22.6332
lfingers 7.12502
lthumb -3.97887 7.3094
rfemur 0.756052 5.53765 25.518
rtibia 33.2442
rfoot -7.72487 -21.1222
rtoes -5.83442
lfemur 2.07206 -0.531574 -16.7181
ltibia 27.6151
lfoot 12.5586 0.42191
ltoes -9.17812
425
root -2.34628 1.18812 21.3434 -1002.19 -1.90814 -182.319
lowerback 24.8318 -6.91819 0.196292
upperback 25.4043 -1.88397 -2.57081
thorax 14.7144 3.48074 -1.64955
lowerneck 11.1054 -0.9352 -7.11433
upperneck 11.3215 -0.926848 5.11614
head 1.82766 -0.100358 2.95067
rclavicle -3.18055e-015 0
rhumerus -42.6987 31.5555 -73.8023
rradius 60.5256
rwrist 7.27068
rhand -24.0525 2.44443
rfingers 7.12502
rthumb 2.42664 -27.5215
lclavicle -3.18055e-015 0
lhumerus -48.4507 -9.87695 73.7277
lradius 55.1843
lwrist -5.36135
lhand -30.3897 -21.6439
lfingers 7.12502
lthumb -3.69378 8.30379
rfemur 1.07912 5.47479 25.5078
rtibia 33.2253
rfoot -7.69635 -21.0739
rtoes -5.94784
lfemur 2.39589 -0.619477 -16.7502
ltibia 27.5907
lfoot 12.6639 0.247041
ltoes -8.89425
